PathFileType	4	(X/Y/Z)	Patient4_TMGait_0pt7_02_right_46.trc.trc
DataRate	CameraRate	NumFrames	NumMarkers	Units	OrigDataRate	OrigDataStartFrame	OrigNumFrames
86.419753086420	86.419753086420	5	33	mm	86.419753086420	36	       141
Frame#	Time	Sacral			L.Shoulder			Chest			R.Shoulder			Neck			R.ASIS			L.ASIS			R.Thigh.Superior			R.Thigh.Lateral			R.Thigh.Inferior			R.Patella			L.Thigh.Superior			L.Thigh.Lateral			L.Thigh.Inferior			L.Patella			L.Shank.Superior			L.Shank.Lateral			L.Shank.Inferior			R.Shank.Superior			R.Shank.Lateral			R.Shank.Inferior			R.Heel			R.Midfoot.Superior			R.Midfoot.Lateral			R.Toe			L.Heel			L.Midfoot.Lateral			L.Midfoot.Superior			L.Toe			L.Elbow			L.Wrist			R.Elbow			R.Wrist			
		X1	Y1	Z1	X2	Y2	Z2	X3	Y3	Z3	X4	Y4	Z4	X5	Y5	Z5	X6	Y6	Z6	X7	Y7	Z7	X8	Y8	Z8	X9	Y9	Z9	X10	Y10	Z10	X11	Y11	Z11	X12	Y12	Z12	X13	Y13	Z13	X14	Y14	Z14	X15	Y15	Z15	X16	Y16	Z16	X17	Y17	Z17	X18	Y18	Z18	X19	Y19	Z19	X20	Y20	Z20	X21	Y21	Z21	X22	Y22	Z22	X23	Y23	Z23	X24	Y24	Z24	X25	Y25	Z25	X26	Y26	Z26	X27	Y27	Z27	X28	Y28	Z28	X29	Y29	Z29	X30	Y30	Z30	X31	Y31	Z31	X32	Y32	Z32	X33	Y33	Z33	

36	52.475000000000	779.676227629089	1007.795478305215	486.812436824508	981.639841931967	1420.984165046872	285.148534539962	1083.707361028289	1350.859331817303	447.523858111843	1006.130659292462	1439.472430119408	617.765725140039	987.013803111247	1485.736848269421	435.803096319893	1007.356613206314	934.864144258119	602.352901140791	984.196976786647	950.851047403998	324.980254005820	1071.091617730375	751.339361598533	576.774289049839	1001.249299162020	634.411871610299	635.665107304036	1088.319010598353	591.122768402006	559.235603639248	1100.517780696131	502.284830919370	565.222146716090	1016.201925084528	735.436173883672	344.031270071431	915.573672008766	628.823933369165	280.395969337264	997.401721645383	536.748480150765	333.068275034543	986.004572670745	454.127290403484	330.959022916715	919.786766556319	399.052017581799	327.101206079569	782.128618898782	349.275495767036	276.953002712341	773.666243944630	221.110300800840	335.395839850400	1077.470145856182	411.641291877900	571.761711367259	1013.933539732896	304.982051858886	636.656037242076	1059.121950826038	211.227036796846	573.648499644813	930.397656614805	44.703284011031	553.920226034256	1105.115527805252	98.584563359267	576.915341369321	1019.108705624724	38.251349719146	621.138034910319	1226.135430257506	42.349245227891	595.007303836854	586.131586723741	140.305652036599	371.160114360082	649.121490414873	99.180597680797	293.526715610376	751.231705964923	119.404313942912	316.079318636258	840.611563368504	31.223473717215	293.613512650295	963.387640197976	1082.584644401167	146.514027800692	1209.183972349752	1115.214247657400	189.787646517483	851.243631867133	1142.531170081372	753.285894600787	804.378155353664	884.470674057237	765.610772232039	
37	52.486571428571	779.628127627236	1010.059541693900	490.089339985397	982.531488558634	1422.170529545829	287.140194140992	1085.099781204784	1351.758740233513	449.087985034135	1008.851757370033	1440.877418494046	619.487553612539	988.639845349348	1486.974270647121	437.674652819483	1007.283456341938	936.336378148025	604.857568500793	983.373611887432	951.554200268274	327.289023921047	1067.829824672865	750.260390491436	580.349784479032	995.954514164770	634.737524467517	638.226772492217	1082.003560448466	590.351917015960	561.216475637275	1092.931255833512	501.768080777494	566.862906286126	1021.204477154494	738.776649786988	346.646856556637	924.845373773020	629.473166155301	282.446208035792	1009.588146198226	539.205351435830	335.264664237185	999.128235535635	455.272469208431	332.411472049256	930.765032507218	400.624413386128	328.710718207244	791.301622038058	356.024993691437	278.447458270969	778.304900289304	228.130795348704	336.272463980043	1069.866880300547	411.583629709115	573.423789942616	1006.149791972987	304.828002880109	637.965510285814	1051.314496709532	211.248173062113	574.538820279539	922.484286132111	44.611053114186	554.179722153118	1097.154069198149	98.591641657853	577.349107521319	1011.162304304566	38.160289781691	621.386730418012	1218.205109733136	42.281184318812	595.424391633750	587.986543000588	156.856606009715	371.810773414288	648.505655721171	112.013300291753	294.094077933243	751.833532837709	125.868876209279	316.554781067939	834.971402382979	30.816146838126	293.952973351472	955.933304698706	1082.389287500448	152.457601306403	1204.218824977632	1102.336511008138	192.687608063499	857.157969070889	1142.022889777276	755.882724163968	816.514300129440	882.739773769626	766.002290461503	
38	52.498142857143	779.411781907017	1012.105995644647	493.167808885345	982.922257735222	1423.208068884756	289.048796850472	1086.248982328213	1352.444425224343	450.411929235230	1011.536426483554	1441.961552904525	621.110727370914	990.023676515730	1488.019492175843	439.511291850913	1006.998917945092	937.613426518849	607.084628604940	982.579127169181	952.227035432139	329.540789157378	1064.176421793503	749.094471371241	583.437515028695	990.623737562442	635.058399490501	640.662155248525	1075.393938491883	589.574536354648	562.870450300809	1085.076574152580	501.275183775169	568.353940623041	1026.265062902962	742.369666336381	349.492578151901	934.521212074050	630.408036300897	284.555656376415	1021.978952588574	542.172590590779	337.885816553722	1012.576442557838	456.954629245179	334.419350874345	942.271732776819	402.561077012197	330.636964201990	801.325086052075	363.011243700875	280.066369997055	783.760817099035	235.606407552055	337.391511799145	1062.074005077050	411.514481871547	574.972886491003	998.228589647947	304.650865667337	639.192775728863	1043.454112618945	211.268768139176	575.358919937499	914.579243527754	44.540646781789	554.406639599983	1089.230817239385	98.546731222988	577.682737666462	1003.234712453878	38.058677441930	621.580235889761	1210.293052745921	42.138827990876	595.724607135592	591.131726407534	173.646661452450	372.562215140384	649.209302245983	125.495007543980	294.751583374907	753.366278233127	133.186879659085	317.288785375604	830.367556735460	31.239831018357	294.373611947987	948.619389372555	1082.219560779178	158.414623439966	1198.847909424981	1087.914649021065	195.506827396728	863.469373579642	1141.076688839547	758.587480384589	829.828848176220	880.618558286384	766.484906756363	
39	52.509714285714	779.043450598812	1013.906017475297	496.012731817563	982.852991911966	1424.069943084487	290.842843637728	1087.129217810111	1352.903751212353	451.504761904366	1014.103105242138	1442.725473420227	622.621183385330	991.163965316359	1488.872162483619	441.273209079384	1006.514621526833	938.700851437347	609.085295508879	981.827809386164	952.879317472382	331.766096912207	1060.334736456724	747.971388457850	586.002812315972	985.419310285766	635.395559685757	642.932674041344	1068.752312335330	588.835806347208	564.263325713202	1077.203745234980	500.830883601453	569.715516529934	1031.230745060974	746.202085820449	352.622176031477	944.437553816407	631.697885482511	286.732378670276	1034.368159420544	545.688257443283	340.937294429330	1026.178758750403	459.212544310692	336.928264550716	954.140529707358	404.903885791339	332.831122429888	812.010124819729	370.190365426143	281.810033492252	789.979655976125	243.434927184596	338.706250393461	1054.290343132066	411.442552529258	576.396086454979	990.316115793435	304.492214732688	640.326125311040	1035.611704418624	211.294459075083	576.096788094744	906.652822274416	44.522412695538	554.598387841216	1081.323633534777	98.467329217332	577.928680089281	995.291063259303	37.973084365279	621.725015429680	1202.366905893430	41.923631289357	595.938890815088	595.497546052057	190.264968737863	373.379644291947	651.272214029401	139.279021977407	295.474748660781	755.883864646309	141.238501024667	318.235706453551	827.063091218070	32.759359409060	294.875574624751	941.562385343046	1082.006196946894	164.335711497309	1192.891939980929	1071.951547731864	198.218594335988	870.114597016425	1139.680755072184	761.322358048980	844.238351462898	878.172303185062	767.109055467689	
40	52.521285714286	778.540173505819	1015.450404760972	498.613545183841	982.380922058036	1424.747584879219	292.495368378767	1087.721493961020	1353.149063322121	452.386153482528	1016.464485640770	1443.196896787720	624.007523810178	992.059985487828	1489.546863709722	442.920945277561	1005.852223438654	939.619458256239	610.909736298506	981.110683847694	953.521265078749	333.980173069292	1056.504427648899	746.974878273220	588.087294215816	980.436251355567	635.748899932117	645.005907619854	1062.292533300617	588.159240947794	565.469093615228	1069.520858529178	500.443478692334	570.954983465625	1035.954532942369	750.258345874850	356.063269998241	954.432594571832	633.401894049076	288.968899467315	1046.571559387713	549.775001812337	344.388464861696	1039.784799036223	462.074545331133	339.846996554802	966.223268871391	407.687612558557	335.226354233650	823.174568826702	377.507798662627	283.668951920510	796.918333347040	251.494491786630	340.161746447931	1046.676875094503	411.370569353664	577.680075326320	982.531415957305	304.380741918730	641.352314836412	1027.845393400936	211.327442076966	576.743747210204	898.689388027057	44.572383196595	554.756508444618	1073.416874651835	98.372435919179	578.104976700407	987.312857076715	37.921393171494	621.831384814047	1194.407045452391	41.652043454111	596.099302392674	600.991933461314	206.309570696419	374.232204180214	654.702950136455	153.003852066708	296.237927156471	759.443156485333	149.854038377160	319.339263835356	825.316718940483	35.556746624548	295.447472881629	934.863264055242	1081.691083814887	170.184878009571	1186.144398425825	1054.480769978398	200.801369004659	877.034006614736	1137.844358988381	764.004969972269	859.696908574534	875.490379701885	767.882145333334	
